# xmcd
#
# Track frame offsets:
#	150
#	15412
#	33502
#	49995
#	87290
#
# Disc length: 1564 seconds
# Revision: 0
# Processed by: cddbd v1.5.2PL0 Copyright (c) Steve Scherf et al.
# Submitted via: dBpowerAMP V12.0
#
DISCID=34061a05
DTITLE=Gloria Estefan - It's Too Late - Cherchez La Femme
DYEAR=1995
DGENRE=Pop
TTITLE0=It's Too Late [Radio Mix]
TTITLE1=It's Too Late [Album Version]
TTITLE2=It's Too Late [Piano Mix]
TTITLE3=Cherchez La Femme [Doom Dub]
TTITLE4=Cherchez La Femme [Piano Mix]
EXTD=
EXTT0=
EXTT1=
EXTT2=
EXTT3=
EXTT4=
PLAYORDER=
